<svg preserveAspectRatio="none" width="100%" height="100%" overflow="visible" style="display: block;" viewBox="0 0 68 55.0181" fill="none" xmlns="http://www.w3.org/2000/svg">
<path id="Vector" fill-rule="evenodd" clip-rule="evenodd" d="M50.0166 0.046025C49.9734 0.0764821 49.7219 0.423723 49.4578 0.81763C47.4782 3.76994 46.3009 5.42035 43.6226 8.99733C38.2022 16.2365 33.1965 21.5366 30.2167 23.1917C26.3004 25.367 16.0797 26.821 2.11816 27.189C0.339514 27.2359 0.119529 27.2555 0.0453464 27.3734C-0.0151155 27.4694 -0.0151155 27.5412 0.0453464 27.6372C0.120585 27.7566 0.405856 27.7773 3.06053 27.8551C5.99851 27.9413 7.64817 28.0264 10.2521 28.2262C14.5904 28.5591 18.3447 29.0822 20.7078 29.6832C22.5361 30.1481 23.7439 30.6486 24.3719 31.2014C24.9059 31.6714 24.9856 31.8662 24.9877 32.7071C24.99 33.6055 24.8306 34.3674 24.3167 35.9145C22.954 40.0171 18.9796 47.613 14.7619 54.1759C14.4626 54.6418 14.4235 54.791 14.5643 54.9318C14.7772 55.1447 14.9252 55.0113 15.6143 53.9857C21.6511 45.0004 28.2011 36.9856 32.341 33.5185C33.2705 32.74 34.5524 31.8867 35.3577 31.5103C39.6071 29.5245 49.7617 28.1628 62.7228 27.8409C63.9191 27.8112 64.8358 27.7573 64.8902 27.7135C65.0178 27.6108 65.0087 27.465 64.866 27.3222C64.7697 27.2259 64.5519 27.2037 63.7015 27.2037C62.3821 27.2037 58.8733 27.0809 57.144 26.9743C51.5308 26.6279 47.1308 26.0709 44.1394 25.3278C41.6088 24.6993 40.2577 23.9414 39.9831 22.9966C39.7071 22.0472 40.128 20.1612 41.2397 17.3655C42.7186 13.6465 46.0423 7.41205 49.4632 1.94055C49.9974 1.08617 50.4344 0.338157 50.4344 0.278223C50.4344 0.0597459 50.1899 -0.076105 50.0166 0.046025ZM62.8349 5.69816C62.149 6.71847 60.7462 8.58321 59.935 9.55317C58.5232 11.2409 57.4572 12.1943 56.6332 12.506C55.147 13.0683 52.578 13.4213 48.6816 13.5988C48.07 13.6267 47.5696 13.6727 47.5696 13.7012C47.5696 13.7297 48.3414 13.7942 49.2847 13.8444C52.7721 14.0299 54.8896 14.4167 55.3311 14.9488C55.4942 15.1452 55.3859 15.9246 55.0892 16.69C54.6987 17.6975 53.7973 19.4575 52.9319 20.9018C52.512 21.6029 52.1683 22.2051 52.1683 22.24C52.1683 22.4123 52.3306 22.2528 52.66 21.7569C54.7493 18.6111 57.3612 15.6442 58.5884 15.0223C59.7927 14.4121 62.2478 14.026 66.0587 13.8475C67.1265 13.7976 68 13.729 68 13.6952C68 13.6614 67.9067 13.6334 67.7927 13.6329C67.0709 13.6301 63.6121 13.3861 62.9866 13.2939C61.2282 13.0347 60.3666 12.7387 60.1709 12.3263C60.0839 12.143 60.0874 12.0399 60.1949 11.6102C60.4891 10.4347 61.3559 8.62664 62.7062 6.37213C63.1521 5.62767 63.394 5.15272 63.3498 5.10854C63.3055 5.06429 63.112 5.28593 62.8349 5.69816Z" fill="var(--fill-0, #EAFF4E)"/>
</svg>
