<svg preserveAspectRatio="none" width="100%" height="100%" overflow="visible" style="display: block;" viewBox="0 0 40 40" fill="none" xmlns="http://www.w3.org/2000/svg">
<g id="chart-column-stacked">
<path id="Vector" d="M18.3333 21.6667H11.6667M31.6667 15H25M5 5V31.6667C5 32.5507 5.35119 33.3986 5.97631 34.0237C6.60143 34.6488 7.44928 35 8.33333 35H35M26.6667 8.33333H30C30.9205 8.33333 31.6667 9.07953 31.6667 10V26.6667C31.6667 27.5871 30.9205 28.3333 30 28.3333H26.6667C25.7462 28.3333 25 27.5871 25 26.6667V10C25 9.07953 25.7462 8.33333 26.6667 8.33333ZM13.3333 13.3333H16.6667C17.5871 13.3333 18.3333 14.0795 18.3333 15V26.6667C18.3333 27.5871 17.5871 28.3333 16.6667 28.3333H13.3333C12.4129 28.3333 11.6667 27.5871 11.6667 26.6667V15C11.6667 14.0795 12.4129 13.3333 13.3333 13.3333Z" stroke="var(--stroke-0, white)" stroke-width="2" stroke-linecap="round"/>
</g>
</svg>
