<svg preserveAspectRatio="none" width="100%" height="100%" overflow="visible" style="display: block;" viewBox="0 0 40 40" fill="none" xmlns="http://www.w3.org/2000/svg">
<g id="clipboard-check">
<path id="Vector" d="M26.666 6.6656H29.999C30.883 6.6656 31.7307 7.01682 32.3558 7.64199C32.9808 8.26716 33.332 9.11507 33.332 9.9992V33.3344C33.332 34.2185 32.9808 35.0664 32.3558 35.6916C31.7307 36.3168 30.883 36.668 29.999 36.668H10.001C9.11703 36.668 8.26927 36.3168 7.64421 35.6916C7.01915 35.0664 6.668 34.2185 6.668 33.3344V9.9992C6.668 9.11507 7.01915 8.26716 7.64421 7.64199C8.26927 7.01682 9.11703 6.6656 10.001 6.6656H13.334M15.0005 23.3336L18.3335 26.6672L24.9995 20M15.0005 3.332H24.9995C25.9199 3.332 26.666 4.07825 26.666 4.9988V8.3324C26.666 9.25295 25.9199 9.9992 24.9995 9.9992H15.0005C14.0801 9.9992 13.334 9.25295 13.334 8.3324V4.9988C13.334 4.07825 14.0801 3.332 15.0005 3.332Z" stroke="var(--stroke-0, white)" stroke-width="2" stroke-linecap="round"/>
</g>
</svg>
