<svg preserveAspectRatio="none" width="100%" height="100%" overflow="visible" style="display: block;" viewBox="0 0 40 40" fill="none" xmlns="http://www.w3.org/2000/svg">
<g id="puzzle">
<path id="Vector" d="M26.4079 7.75046C26.1211 7.67555 25.8595 7.52549 25.65 7.31576L22.845 4.51056C22.4714 4.13691 22.0279 3.84052 21.5397 3.6383C21.0516 3.43608 20.5284 3.332 20 3.332C19.4716 3.332 18.9484 3.43608 18.4603 3.6383C17.9722 3.84052 17.5286 4.13691 17.155 4.51056L14.35 7.3141C14.1403 7.52362 13.9903 7.78528 13.9154 8.07212C13.8405 8.35895 13.8434 8.66057 13.9239 8.94589C14.0044 9.23121 14.1595 9.48989 14.3733 9.69527C14.5871 9.90065 14.8517 10.0453 15.14 10.1143C15.8602 10.2871 16.5214 10.6487 17.0554 11.162C17.5894 11.6753 17.9769 12.3217 18.1781 13.0345C18.3793 13.7474 18.3868 14.501 18.1999 15.2177C18.013 15.9345 17.6385 16.5885 17.1148 17.1123C16.5912 17.6362 15.9374 18.011 15.2208 18.1981C14.5042 18.3852 13.7506 18.3779 13.0377 18.177C12.3248 17.9761 11.6784 17.5887 11.165 17.0548C10.6516 16.521 10.2897 15.8599 10.1167 15.1397C10.0477 14.8513 9.90308 14.5866 9.69771 14.3729C9.49234 14.1591 9.23368 14.0039 8.94839 13.9234C8.66309 13.8429 8.36149 13.84 8.07468 13.9149C7.78787 13.9898 7.52622 14.1399 7.31672 14.3496L4.51173 17.1548C4.13811 17.5284 3.84173 17.972 3.63953 18.4602C3.43733 18.9484 3.33325 19.4716 3.33325 20C3.33325 20.5284 3.43733 21.0516 3.63953 21.5398C3.84173 22.028 4.13811 22.4716 4.51173 22.8452L7.31672 25.6487C7.52643 25.8583 7.67648 26.1199 7.75138 26.4068C7.82628 26.6936 7.82334 26.9952 7.74284 27.2805C7.66235 27.5658 7.50722 27.8245 7.29345 28.0299C7.07968 28.2353 6.81501 28.3799 6.52672 28.4489C5.8065 28.6217 5.14534 28.9834 4.61134 29.4967C4.07734 30.0099 3.68981 30.6563 3.48864 31.3692C3.28747 32.082 3.27994 32.8356 3.46682 33.5524C3.65371 34.2691 4.02826 34.9231 4.55189 35.4469C5.07553 35.9708 5.72933 36.3456 6.44596 36.5327C7.16259 36.7199 7.91614 36.7126 8.62902 36.5116C9.3419 36.3107 9.98834 35.9233 10.5018 35.3895C11.0152 34.8556 11.377 34.1945 11.55 33.4743C11.619 33.186 11.7637 32.9213 11.969 32.7075C12.1744 32.4937 12.4331 32.3386 12.7184 32.2581C13.0036 32.1776 13.3052 32.1746 13.5921 32.2495C13.8789 32.3245 14.1405 32.4745 14.35 32.6842L17.155 35.4894C17.5286 35.8631 17.9722 36.1595 18.4603 36.3617C18.9484 36.5639 19.4716 36.668 20 36.668C20.5284 36.668 21.0516 36.5639 21.5397 36.3617C22.0279 36.1595 22.4714 35.8631 22.845 35.4894L25.65 32.6859C25.8597 32.4764 26.0097 32.2147 26.0846 31.9279C26.1595 31.6411 26.1566 31.3394 26.0761 31.0541C25.9956 30.7688 25.8405 30.5101 25.6267 30.3047C25.4129 30.0993 25.1483 29.9547 24.86 29.8857C24.1398 29.7129 23.4786 29.3513 22.9446 28.838C22.4106 28.3247 22.0231 27.6783 21.8219 26.9655C21.6207 26.2526 21.6132 25.499 21.8001 24.7823C21.987 24.0655 22.3615 23.4115 22.8852 22.8877C23.4088 22.3638 24.0626 21.9891 24.7792 21.8019C25.4958 21.6148 26.2494 21.6221 26.9623 21.823C27.6752 22.0239 28.3216 22.4113 28.835 22.9452C29.3484 23.479 29.7103 24.1401 29.8833 24.8603C29.9523 25.1487 30.0969 25.4134 30.3023 25.6271C30.5077 25.8409 30.7663 25.9961 31.0516 26.0766C31.3369 26.1571 31.6385 26.16 31.9253 26.0851C32.2121 26.0102 32.4738 25.8601 32.6833 25.6504L35.4883 22.8452C35.8619 22.4716 36.1583 22.028 36.3605 21.5398C36.5627 21.0516 36.6667 20.5284 36.6667 20C36.6667 19.4716 36.5627 18.9484 36.3605 18.4602C36.1583 17.972 35.8619 17.5284 35.4883 17.1548L32.6833 14.3513C32.4736 14.1417 32.3235 13.8801 32.2486 13.5932C32.1737 13.3064 32.1767 13.0048 32.2572 12.7195C32.3376 12.4342 32.4928 12.1755 32.7065 11.9701C32.9203 11.7647 33.185 11.6201 33.4733 11.5511C34.1935 11.3783 34.8547 11.0166 35.3887 10.5033C35.9227 9.99007 36.3102 9.34371 36.5114 8.63084C36.7125 7.91798 36.7201 7.16437 36.5332 6.44762C36.3463 5.73088 35.9717 5.07691 35.4481 4.55306C34.9245 4.02921 34.2707 3.65441 33.554 3.46727C32.8374 3.28014 32.0839 3.28741 31.371 3.48836C30.6581 3.68931 30.0117 4.07667 29.4982 4.61053C28.9848 5.1444 28.623 5.80549 28.45 6.52571C28.381 6.81402 28.2363 7.07871 28.031 7.2925C27.8256 7.50628 27.5669 7.66142 27.2816 7.74192C26.9964 7.82242 26.6948 7.82537 26.4079 7.75046Z" stroke="var(--stroke-0, white)" stroke-width="2" stroke-linecap="round"/>
</g>
</svg>
