<svg preserveAspectRatio="none" width="100%" height="100%" overflow="visible" style="display: block;" viewBox="0 0 72 72" fill="none" xmlns="http://www.w3.org/2000/svg">
<g id="inbox">
<path id="Vector" d="M66.0024 36H48.001L42.0005 44.9991H29.9995L23.999 36H5.9976M5.9976 36L16.3484 15.3321C16.8452 14.3325 17.611 13.4914 18.5597 12.9031C19.5085 12.3149 20.6025 12.003 21.7189 12.0024H50.2811C51.3975 12.003 52.4915 12.3149 53.4403 12.9031C54.389 13.4914 55.1548 14.3325 55.6516 15.3321L66.0024 36V53.9982C66.0024 55.5893 65.3702 57.1153 64.2449 58.2404C63.1196 59.3655 61.5933 59.9976 60.0019 59.9976H11.9981C10.4067 59.9976 8.88041 59.3655 7.7551 58.2404C6.62979 57.1153 5.9976 55.5893 5.9976 53.9982V36Z" stroke="var(--stroke-0, white)" stroke-width="2" stroke-linecap="round"/>
<path id="Vector_2" d="M35.7494 21.6653V32.2702M30.447 26.9678L35.7494 32.2702L41.0519 26.9678" stroke="var(--stroke-0, white)" stroke-width="2" stroke-linecap="round"/>
</g>
</svg>
