<svg preserveAspectRatio="none" width="100%" height="100%" overflow="visible" style="display: block;" viewBox="0 0 72 72" fill="none" xmlns="http://www.w3.org/2000/svg">
<g id="package">
<path id="Vector" d="M36 66.0024V36.0007M36 36.0007L9.87012 20.9998M36 36.0007L62.1301 20.9998M22.5 12.8079L49.5 28.2588M33 65.1921C33.9121 65.7187 34.9468 65.996 36 65.996C37.0532 65.996 38.0879 65.7187 39 65.1921L60 53.1914C60.9112 52.6653 61.6681 51.9087 62.1946 50.9978C62.7212 50.0868 62.9989 49.0533 63 48.0011V23.9997C62.9989 22.9474 62.7212 21.914 62.1946 21.003C61.6681 20.092 60.9112 19.3355 60 18.8094L39 6.80869C38.0879 6.28205 37.0532 6.0048 36 6.0048C34.9468 6.0048 33.9121 6.28205 33 6.80869L12 18.8094C11.0888 19.3355 10.3319 20.092 9.80538 21.003C9.27883 21.914 9.00108 22.9474 9 23.9997V48.0011C9.00108 49.0533 9.27883 50.0868 9.80538 50.9978C10.3319 51.9087 11.0888 52.6653 12 53.1914L33 65.1921Z" stroke="var(--stroke-0, white)" stroke-width="2" stroke-linecap="round"/>
</g>
</svg>
