<svg preserveAspectRatio="none" width="100%" height="100%" overflow="visible" style="display: block;" viewBox="0 0 47.9323 38.7815" fill="none" xmlns="http://www.w3.org/2000/svg">
<path id="Vector" fill-rule="evenodd" clip-rule="evenodd" d="M35.256 0.0324424C35.2256 0.0539112 35.0483 0.298677 34.8621 0.576337C33.4668 2.65738 32.6369 3.82073 30.749 6.3421C26.9282 11.4449 23.3998 15.1809 21.2994 16.3475C18.5388 17.8808 11.3344 18.9058 1.49307 19.1651C0.239319 19.1982 0.0842545 19.212 0.0319641 19.2951C-0.0106547 19.3628 -0.0106547 19.4134 0.0319641 19.4811C0.0849984 19.5653 0.286082 19.5799 2.15732 19.6347C4.22827 19.6954 5.39109 19.7554 7.22657 19.8963C10.2846 20.1309 12.9309 20.4997 14.5966 20.9233C15.8854 21.251 16.7368 21.6038 17.1794 21.9934C17.5558 22.3248 17.612 22.462 17.6135 23.0548C17.6151 23.6881 17.5027 24.2251 17.1405 25.3156C16.18 28.2076 13.3785 33.5618 10.4054 38.1879C10.1945 38.5163 10.1669 38.6214 10.2662 38.7207C10.4163 38.8708 10.5205 38.7768 11.0063 38.0538C15.2616 31.7202 19.8786 26.0707 22.7968 23.6267C23.4519 23.078 24.3555 22.4765 24.9232 22.2112C27.9185 20.8114 35.0764 19.8516 44.2124 19.6247C45.0557 19.6038 45.7019 19.5658 45.7402 19.5349C45.8302 19.4625 45.8238 19.3597 45.7232 19.259C45.6553 19.1912 45.5018 19.1756 44.9024 19.1756C43.9723 19.1756 41.499 19.089 40.28 19.0138C36.3233 18.7697 33.2218 18.377 31.1133 17.8533C29.3295 17.4102 28.3771 16.876 28.1835 16.21C27.989 15.5408 28.2857 14.2114 29.0693 12.2407C30.1117 9.61923 32.4546 5.22465 34.866 1.36787C35.2425 0.765624 35.5505 0.238362 35.5505 0.196116C35.5505 0.0421141 35.3782 -0.0536454 35.256 0.0324424ZM44.2915 4.01656C43.808 4.73576 42.8192 6.05019 42.2474 6.7339C41.2522 7.92356 40.5008 8.59558 39.92 8.81531C38.8724 9.21164 37.0615 9.4605 34.315 9.58559C33.8839 9.60525 33.5312 9.63772 33.5312 9.65781C33.5312 9.67789 34.0752 9.72333 34.7401 9.75872C37.1984 9.8895 38.6909 10.1622 39.0022 10.5372C39.1171 10.6757 39.0408 11.225 38.8316 11.7646C38.5564 12.4747 37.921 13.7153 37.311 14.7334C37.015 15.2276 36.7728 15.6521 36.7728 15.6767C36.7728 15.7981 36.8872 15.6857 37.1193 15.3361C38.5921 13.1187 40.4331 11.0274 41.2982 10.589C42.1471 10.1589 43.8777 9.88674 46.5639 9.76095C47.3166 9.72572 47.9323 9.67736 47.9323 9.65355C47.9323 9.62975 47.8666 9.60998 47.7862 9.60966C47.2774 9.6077 44.8393 9.43568 44.3984 9.37069C43.1589 9.18799 42.5516 8.97931 42.4137 8.68868C42.3524 8.55944 42.3548 8.48675 42.4306 8.18384C42.6379 7.35527 43.249 6.0808 44.2008 4.49163C44.5151 3.96687 44.6856 3.63208 44.6544 3.60094C44.6232 3.56975 44.4868 3.72598 44.2915 4.01656Z" fill="var(--fill-0, #EAFF4E)"/>
</svg>
