<svg preserveAspectRatio="none" width="100%" height="100%" overflow="visible" style="display: block;" viewBox="0 0 61.9904 61.9904" fill="none" xmlns="http://www.w3.org/2000/svg">
<path id="Vector" d="M28.5183 1C30.1096 1.00034 31.6356 1.63276 32.7606 2.75815L58.8748 28.8723C60.2299 30.236 60.9904 32.0803 60.9904 34.0027C60.9904 35.9252 60.2299 37.7695 58.8748 39.1332L39.1332 58.8748C37.7695 60.2299 35.9252 60.9904 34.0027 60.9904C32.0803 60.9904 30.236 60.2299 28.8723 58.8748L2.75815 32.7606C1.63276 31.6356 1.00034 30.1096 1 28.5183V7.0005C1 5.40907 1.63219 3.88282 2.75751 2.75751C3.88282 1.63219 5.40907 1 7.0005 1H28.5183Z" stroke="var(--stroke-0, white)" stroke-width="2" stroke-linecap="round"/>
<circle cx="12.9" cy="12.9" r="3.1" stroke="var(--stroke-0, white)" stroke-width="2"/>
</svg>
