<svg preserveAspectRatio="none" width="100%" height="100%" overflow="visible" style="display: block;" viewBox="0 0 20 20" fill="none" xmlns="http://www.w3.org/2000/svg">
<g id="alert-triangle">
<path id="Vector" d="M10.0003 7.49919V10.8325M10.0003 14.1659H10.0087M18.109 14.9994L11.4423 3.33271C11.297 3.07621 11.0862 2.86286 10.8314 2.71443C10.5767 2.566 10.2872 2.48779 9.99234 2.48779C9.69752 2.48779 9.40797 2.566 9.15324 2.71443C8.8985 2.86286 8.6877 3.07621 8.54234 3.33271L1.87567 14.9994C1.72874 15.2538 1.6517 15.5426 1.65235 15.8365C1.653 16.1303 1.73132 16.4187 1.87938 16.6726C2.02744 16.9264 2.23996 17.1365 2.49542 17.2817C2.75088 17.4269 3.04018 17.502 3.33401 17.4994H16.6673C16.9598 17.4991 17.2469 17.4218 17.5001 17.2754C17.7532 17.129 17.9634 16.9186 18.1094 16.6653C18.2555 16.412 18.3324 16.1247 18.3323 15.8323C18.3322 15.5399 18.2552 15.2526 18.109 14.9994Z" stroke="var(--stroke-0, #EAFF4E)" stroke-width="2" stroke-linecap="round"/>
</g>
</svg>
