<svg preserveAspectRatio="none" width="100%" height="100%" overflow="visible" style="display: block;" viewBox="0 0 7.36396 38" fill="none" xmlns="http://www.w3.org/2000/svg">
<path id="Vector 105" d="M4.18198 0.5C4.18198 0.223858 3.95812 0 3.68198 0C3.40584 0 3.18198 0.223858 3.18198 0.5H3.68198H4.18198ZM3.32843 37.8536C3.52369 38.0488 3.84027 38.0488 4.03553 37.8536L7.21751 34.6716C7.41278 34.4763 7.41278 34.1597 7.21751 33.9645C7.02225 33.7692 6.70567 33.7692 6.51041 33.9645L3.68198 36.7929L0.853554 33.9645C0.658291 33.7692 0.341709 33.7692 0.146447 33.9645C-0.0488155 34.1597 -0.0488155 34.4763 0.146447 34.6716L3.32843 37.8536ZM3.68198 0.5H3.18198V37.5H3.68198H4.18198V0.5H3.68198Z" fill="var(--stroke-0, #666666)"/>
</svg>
