<svg preserveAspectRatio="none" width="100%" height="100%" overflow="visible" style="display: block;" viewBox="0 0 44 44" fill="none" xmlns="http://www.w3.org/2000/svg">
<g id="icon">
<path id="Vector" d="M35 5H17C15.3431 5 14 6.34315 14 8V20C14 21.6569 15.3431 23 17 23H35C36.6569 23 38 21.6569 38 20V8C38 6.34315 36.6569 5 35 5Z" stroke="var(--stroke-0, white)" stroke-width="2.5"/>
<path id="Vector_2" d="M29 13H11C9.34315 13 8 14.3431 8 16V28C8 29.6569 9.34315 31 11 31H29C30.6569 31 32 29.6569 32 28V16C32 14.3431 30.6569 13 29 13Z" fill="var(--fill-0, #1E1E1E)" stroke="var(--stroke-0, white)" stroke-width="2.5"/>
<path id="Vector_3" d="M24 21H6C4.34315 21 3 22.3431 3 24V36C3 37.6569 4.34315 39 6 39H24C25.6569 39 27 37.6569 27 36V24C27 22.3431 25.6569 21 24 21Z" fill="var(--fill-0, #1E1E1E)" stroke="var(--stroke-0, white)" stroke-width="2.5"/>
</g>
</svg>
