<svg preserveAspectRatio="none" width="100%" height="100%" overflow="visible" style="display: block;" viewBox="0 0 44 44" fill="none" xmlns="http://www.w3.org/2000/svg">
<g id="icon">
<path id="Vector" d="M33 12H11C8.23858 12 6 14.2386 6 17V31C6 33.7614 8.23858 36 11 36H33C35.7614 36 38 33.7614 38 31V17C38 14.2386 35.7614 12 33 12Z" stroke="var(--stroke-0, white)" stroke-width="2.5"/>
<path id="Vector_2" d="M15 26.5C16.933 26.5 18.5 24.933 18.5 23C18.5 21.067 16.933 19.5 15 19.5C13.067 19.5 11.5 21.067 11.5 23C11.5 24.933 13.067 26.5 15 26.5Z" fill="var(--fill-0, white)"/>
<path id="Vector_3" d="M29 26.5C30.933 26.5 32.5 24.933 32.5 23C32.5 21.067 30.933 19.5 29 19.5C27.067 19.5 25.5 21.067 25.5 23C25.5 24.933 27.067 26.5 29 26.5Z" fill="var(--fill-0, white)"/>
<path id="Vector_4" d="M25.5 30H18.5C17.6716 30 17 30.6716 17 31.5C17 32.3284 17.6716 33 18.5 33H25.5C26.3284 33 27 32.3284 27 31.5C27 30.6716 26.3284 30 25.5 30Z" fill="var(--fill-0, white)"/>
<path id="Vector_5" d="M22 12V5" stroke="var(--stroke-0, white)" stroke-width="2.5" stroke-linecap="round"/>
<path id="Vector_6" d="M22 6C23.1046 6 24 5.10457 24 4C24 2.89543 23.1046 2 22 2C20.8954 2 20 2.89543 20 4C20 5.10457 20.8954 6 22 6Z" fill="var(--fill-0, white)"/>
</g>
</svg>
