<svg preserveAspectRatio="none" width="100%" height="100%" overflow="visible" style="display: block;" viewBox="0 0 24 24" fill="none" xmlns="http://www.w3.org/2000/svg">
<g id="bolt">
<path id="Vector" d="M21 7.99955V15.9995C20.9996 16.3503 20.9071 16.6947 20.7315 16.9984C20.556 17.302 20.3037 17.5542 20 17.7295L13 21.7295C12.696 21.9051 12.3511 21.9975 12 21.9975C11.6489 21.9975 11.304 21.9051 11 21.7295L4 17.7295C3.69626 17.5542 3.44398 17.302 3.26846 16.9984C3.09294 16.6947 3.00036 16.3503 3 15.9995V7.99955C3.00036 7.64882 3.09294 7.30436 3.26846 7.00071C3.44398 6.69706 3.69626 6.44491 4 6.26955L11 2.26955C11.304 2.09401 11.6489 2.0016 12 2.0016C12.3511 2.0016 12.696 2.09401 13 2.26955L20 6.26955C20.3037 6.44491 20.556 6.69706 20.7315 7.00071C20.9071 7.30436 20.9996 7.64882 21 7.99955Z" stroke="var(--stroke-0, white)" stroke-width="2" stroke-linecap="round"/>
</g>
</svg>
